<?xml version="1.0" encoding="utf-8"?>
<!-- Generator: Adobe Illustrator 21.0.0,  SVG Export Plug-In . SVG Version: 6.00 Build 0)  -->

<svg version="1.1" 
	xmlns="http://www.w3.org/2000/svg" xmlns:xlink="http://www.w3.org/1999/xlink" 
	x="0px" y="0px" 
	viewBox="0 0 340.16 340.16" 
	style="enable-background:new 0 0 340.16 340.16;" xml:space="preserve">

<style type="text/css">
	.st0{fill:#97C9B7;}
	.st1{fill:#D0E8EA;}
	.st2{fill:#619A87;}
	.st3{fill:#FAE8E3;}
	.st4{fill:#DAA188;}
	.st5{
		fill:none;
		stroke:#E4007F;
		stroke-width:4;
		stroke-miterlimit:10;
	}
	.st6{fill:#FCEBE2;}
	.st7{fill:#F4D7D3;}
	.st8{
		fill:#DAA188;
		stroke:#7F4F21;
		stroke-miterlimit:10;
	}
	.st9{fill:#E8D2CA;}
	.st10{
		fill:#FFFFFF;
		stroke:#000000;
		stroke-width:4;
		stroke-miterlimit:10;
	}
	.st11{fill:#E9D2AB;}
	.st12{fill:#EFEFE7;}
	.st13{fill:#C88D7A;}
	.st14{
		fill:none;
		stroke:#E4007F;
		stroke-width:3;
		stroke-miterlimit:10;
	}
	.st15{fill:#E4007F;}
	.st16{display:none;}
	.st17{display:inline;}
	.st18{
		fill:none;
		stroke:#E4007F;
		stroke-width:0.75;
		stroke-miterlimit:10;
	}
	.st19{
		fill:none;
		stroke:#D70051;
		stroke-miterlimit:10;
	}
</style>


<g id="上色">
	<g id="衣服_1_">
		<path 
		id="卫衣" 
		class="st0" 
		d="
			M151.936, 332.515
            l-0.014-0.01
            l41.141-0.005
            c10.266-6.28, 28.818-18.015, 40.188-26.625
			c12.054-9.128, 24.141-18.984, 33.364-27.626
            c-0.199-0.909-4.337-13.437-14.28-17.583
            c-9.75-4.065-19.135, 1.22-19.983, 1.739
			l0.001, 0.002
            c-0.401-0.322-0.797-0.678-1.185-1.074
            c-3.233-3.303-3.104-5.635-6-8.429
            c-2.427-2.342-6.75-7.07-19.417-8.07
			l-71.917, 1.999
            c-3.362, 3.97-5.543, 6.54-6.5, 7.667
            c-3.876, 4.566-5.855, 6.848-7.833, 6.833
            c-2.658-0.02-3.151-2.841-6.167-3.667
			c-4.313-1.181-8.955, 3.046-11.833, 5.667
            c-2.989, 2.721-8.271, 8.417-11.5, 18.417
            c9.533, 8.876, 20.019, 18.029, 31.5, 27.25
			c10.149, 8.151, 21.57, 17.298, 31.125, 24"/>
		<g id="外套">
			<path class="st1" 
			d="
			    M76.875, 333
                c-0.015-6.808, 0.182-17.944, 3.25-28.625
                c2.798-9.738, 6.554-17.09, 9.875-22.625
				c9.533, 8.876, 20.019, 18.029, 31.5, 27.25
                c9.901, 7.952, 21.013, 16.852, 30.422, 23.505
                l0.014-0.005
                H76"/>
			<path class="st1" 
			d="
			    M193.063, 332.5
                h92.206
                c0.072-4.53, 0.149-24.286-4.394-37.625
                c-1.805-5.3-3.866-8.545-6.375-11.125
				c-3.129-3.219-5.652-4.577-7.886-5.501
                c-9.223, 8.641-21.31, 18.497-33.364, 27.626
                C221.881, 314.485, 203.329, 326.22, 193.063, 332.5
                z"
				/>
		</g>
		<path id="卫衣-暗部" class="st2" 
        d="
		    M205.75, 244.834
            c12.667, 1, 16.99, 5.728, 19.417, 8.07
            c1.23, 1.187, 1.914, 2.291, 2.542, 3.421
			c-2.037, 2.435-35.975, 21.323-56.709, 21.342
            c-13.51, 0.013-40.586-19.323-43.667-23.167
            c0.957-1.127, 3.138-3.697, 6.5-7.667
			L205.75, 244.834
            z"/>
	</g><!-- 衣服_1_ END -->
	
	<g id="脖子_1_">
		<path id="胸-亮部" class="st3" 
		d="
		M204.135, 270.227c-5.203, 6.936-11.395, 15.876-16.135, 24.273
			c-7.495, 13.274-13.136, 27.408-16.688, 38c-5.39-11.483-11.242-25.772-16.313-39.5c-3.149-8.526-5.93-16.797-8.39-24.762
			l-0.001, 0.004c8.509, 4.987, 17.978, 9.34, 24.391, 9.334c9.42-0.009, 21.565-3.912, 32.206-8.398l0-0.001l0.865, 1.002"/>
		<path id="脖子-暗部" class="st4" 
		d="
		M192.375, 240.444v16.181l10.831, 12.552l0, 0.001c-10.641, 4.486-22.786, 8.389-32.206, 8.398
			c-6.413, 0.006-15.882-4.348-24.391-9.334l0.001-0.004c-0.528-1.71-1.042-3.406-1.541-5.087l-0.002-0.009l7.558-6.642
			c0, 0, 0-13.834, 0-13.833c14.591, 2.838, 28.046, 1.228, 39.701-2.379"/>
	</g><!-- 脖子_1_ END -->
	
	<g id="脸及五官">
		<path id="左头饰-丝带_x23_2" class="st5" 
        d="
		M73.926, 177.188c0.248, 8.51, 1.55, 29.036, 3.741, 40.146
			c2.071, 10.503, 4.851, 19.671, 7.667, 27.333"/>
		
		<g id="耳朵">
			<path id="左耳" class="st6" 
            d="
            M75.446, 164.643c-2.946, 1.69-3.018, 1.596-3.808, 4.607c-1.333, 5.083, 2.139, 14.5, 4.034, 17.367
				c3.53, 5.342, 6.208, 8.499, 11.049, 12.19L75.446, 164.643z"/>
			<path id="右耳" class="st6" 
            d="
            M253.497, 201.488c3.497-1.678, 9.181-5.003, 13.336-15.488c2.885-7.281, 2.229-21.469-0.674-24.749
				c-1.745-1.972-2.66-2.689-5.493-1.918c-1.645, 16.518-4.512, 30.772-7.417, 42.091"/>
		</g>
		
		<path id="脸_1_" class="st3" 
        d="
        M226.333, 164.833c8.232-6.124, 10.673-26.948, 11.44-37.113l-0.066, 0.844
			c0-4.314-0.981-5.727-3.666-11.689c-1.484-3.295-2.727-5.746-4.3-8.23l0.008-0.131c-0.547, 9.082-2.636, 18.564-3.917, 25.486
			c-0.464-2.247-1.654-6.44-5-10.5c-2.284-2.771-4.756-4.49-6.5-5.5c0.717-2.477, 2.473-9.79-1-17.5
			c-1.419-3.15-1.318-2.87-2.79-4.659l-0.052-0.002c-0.107, 4.243-0.267, 8.905-0.484, 13.91c-0.24, 2.646-0.364, 5.285-2.5, 8.167
			c-0.735, 0.991-1.956, 2.153-5.667, 3.5c-2.704, 0.982-7.432, 1.869-13.103, 1.877l0.326-0.083c0.497-3.395, 0.233-5.59-0.23-10.544
			c-0.301-3.216-1.82-9.903-2.456-12.333l-0.189-0.336c-0.078, 1.306-0.181, 2.641-0.313, 4.002
			c-0.996, 10.258-3.762, 19.269-6.063, 25.792c0.367-7.025-0.896-19.938-1.188-21.667c-0.879-5.211-1.064-19.25-3.375-25.375
			c0.771, 2.942, 2.058, 9.517-0.25, 17.25c-1.662, 5.567-5.474, 10.641-7.343, 12.813l-0.023-0.271c0.48, 5.852, 1.268, 11.821, 1.865, 15.375
			c-0.139-0.264-1.967-3.049-6.326-4.25c-2.328-0.641-6.44-0.575-7.341, 0c0, 0-5.958-27.375-6.083-27.625
			c-0.047, 4.258-0.435, 11.8-0.021, 16.771c0.471, 5.652, 1.253, 9.569, 2.146, 14.229c-5.236-2.884-14.589-9.183-18.5-19.042
			c-2.25-5.672-3.25-13.875-3.688-25.688c-0.108-2.927-0.224-7.24-0.288-12.187l-0.048, 0.601c-3.447, 3.394-4.713, 5.205-8.018, 12.024
			c-4.333, 8.938-5.646, 30.063-3.615, 42.5c-5.688, 0-6.875-2.063-8.156-4.188c-0.81-1.344-4.656-15.156-4.656-21.719l0.023-0.509
			c-0.696, 11.096-0.403, 21.573, 0.274, 30.447c-4.281-1.906-8.007-5.852-10.484-12.235c-1.508-3.886-3.113-10.528-3.625-15.861
			l0.014-0.56c-0.235, 8.561, 0.084, 18.556, 0.6, 28.999c0.836, 16.92, 7.158, 32.043, 11.375, 40.76c-2.293-0.347-5.677-1.134-9.158-2.661
			l0.137, 0.109c0, 10.083, 1.612, 20.899, 2.994, 30.021c0.399, 2.632, 0.764, 5.741, 1.165, 9.084c4.524, 6.273, 22.06, 28.758, 52.778, 35.395
			c47.185, 10.194, 82.891-26.534, 84.969-28.729l0.173-0.006c-0.152-4.785-0.217-9.444-0.142-13.431
			c0.255-13.516, 1.266-25.963, 2.667-37.167l0.637, 0.477c-0.763, 0.314-1.587, 0.606-2.47, 0.857
			C232.292, 165.624, 228.422, 165.212, 226.333, 164.833z"/>
		
		<path id="鼻子" class="st7" d="M195.111, 160.5c0, 6.267-12.543, 11.348-28.016, 11.348s-28.016-5.081-28.016-11.348
			c0-3.6, 9.876-11.348, 28.016-11.348C182.568, 149.152, 195.111, 154.233, 195.111, 160.5z"/>
		
		<path id="嘴" class="st8" d="M140.667, 198.807c0.013-1.325, 13.712-1.854, 24.833-1.807c14.702, 0.063, 29.226, 3.822, 29.167, 5.297
			c-0.06, 1.498-17.191, 0.393-29.333, 0.036C154.095, 202.003, 140.653, 200.221, 140.667, 198.807z"/>
		
		<g id="腮红">
			<g>
				<g>
					<path class="st9" d="M117.827, 167.986c-0.792, 3.347-1.583, 6.694-2.375, 10.042c-0.287, 1.214, 2.651, 0.804, 2.913-0.304
						c0.792-3.347, 1.583-6.694, 2.375-10.042C121.027, 166.467, 118.089, 166.877, 117.827, 167.986L117.827, 167.986z"/>
				</g>
			</g>
			<g>
				<g>
					<path class="st9" d="M112.322, 167.986c-1.135, 3.847-2.269, 7.694-3.404, 11.542c-0.344, 1.166, 2.591, 0.789, 2.913-0.304
						c1.135-3.847, 2.269-7.694, 3.404-11.542C115.58, 166.515, 112.645, 166.892, 112.322, 167.986L112.322, 167.986z"/>
				</g>
			</g>
			<g>
				<g>
					<path class="st9" d="M105.364, 169.944c-1.246, 3.347-2.492, 6.694-3.737, 10.042c-0.408, 1.097, 2.516, 0.762, 2.913-0.304
						c1.246-3.347, 2.492-6.694, 3.737-10.042C108.686, 168.542, 105.761, 168.878, 105.364, 169.944L105.364, 169.944z"/>
				</g>
			</g>
			<g>
				<g>
					<path class="st9" d="M99.579, 171.715c-0.792, 2.167-1.583, 4.333-2.375, 6.5c-0.403, 1.104, 2.523, 0.765, 2.913-0.304
						c0.792-2.167, 1.583-4.333, 2.375-6.5C102.895, 170.307, 99.969, 170.646, 99.579, 171.715L99.579, 171.715z"/>
				</g>
			</g>
			<g>
				<g>
					<path class="st9" d="M233.056, 166.464c-0.976, 2.813-1.953, 5.625-2.929, 8.438c-0.389, 1.12, 2.54, 0.772, 2.913-0.304
						c0.976-2.813, 1.953-5.625, 2.929-8.438C236.358, 165.04, 233.429, 165.388, 233.056, 166.464L233.056, 166.464z"/>
				</g>
			</g>
			<g>
				<g>
					<path class="st9" d="M216.336, 162.768c-2.15, 4.715-4.3, 9.43-6.45, 14.145c-0.626, 1.373, 2.277, 1.162, 2.728, 0.173
						c2.15-4.715, 4.3-9.43, 6.45-14.145C219.69, 161.569, 216.787, 161.78, 216.336, 162.768L216.336, 162.768z"/>
				</g>
			</g>
			<g>
				<g>
					<path class="st9" d="M223.053, 162.128c-1.722, 3.347-3.444, 6.694-5.167, 10.042c-0.683, 1.328, 2.231, 1.139, 2.728, 0.173
						c1.722-3.347, 3.444-6.694, 5.167-10.042C226.464, 160.974, 223.55, 161.162, 223.053, 162.128L223.053, 162.128z"/>
				</g>
			</g>
			<g>
				<g>
					<path class="st9" d="M227.614, 166.226c-1.382, 2.701-2.763, 5.403-4.145, 8.104c-0.68, 1.33, 2.233, 1.141, 2.728, 0.173
						c1.382-2.701, 2.763-5.403, 4.145-8.104C231.022, 165.069, 228.109, 165.258, 227.614, 166.226L227.614, 166.226z"/>
				</g>
			</g>
		</g>
		
		<g id="眼睛">
			<ellipse id="左眼" class="st10" cx="121.333" cy="142.91" rx="19.312" ry="13.585"/>
			
				<ellipse id="右眼" transform="matrix(0.4393 -0.8983 0.8983 0.4393 -12.4558 265.2936)" class="st10" cx="206.291" cy="142.625" rx="13.783" ry="19.069"/>
		</g>
	</g><!-- 脸及五官 END -->
	
	<g id="头发及发饰">
		<path id="头发_1_" class="st11" d="M64.823, 139.47c1.548, 17.867, 2.431, 41.848, 1.177, 49.03
			c-2.438, 13.963-2.346, 15.612-3.5, 29.833c-1.364, 16.812-0.136, 20.031-1.5, 36.167c-1.031, 12.197-3.069, 16.129-5.5, 28.5
			c-2.227, 11.335-4.41, 27.851-3.5, 49l1.885, 0.719H43.802L45, 331.625c1.278-32.545-1.534-58.343-4.417-76.125
			c-3.262-20.117-9.675-46.28-9.083-78c0.528-28.317, 3.64-37.408, 11.25-63.5c4.997-17.132, 22-41.75, 30.892-46.922l-0.527, 0.977
			C91.318, 33.815, 126.508, 11.806, 165, 11c42.651-0.893, 82.142, 24.399, 99.75, 64c2.723-0.203, 7.376-0.149, 12.25, 2.167
			c2.463, 1.17, 5.977, 3.39, 10.833, 10.167c2.108, 2.941, 6.731, 9.506, 9.667, 19.167c12.344, 40.624, 11.512, 100.833, 11.512, 100.833
			c-0.369, 43.339-1.42, 51.917-3.179, 91.917c-0.879, 19.981-0.172, 22.609, 0.5, 33.25l0.365, 0.781h-4.625L302, 331.5
			c-5.826-31.207-11.651-62.414-17.477-93.621c-0.69-4.212-3.748-7.062-4.023-11.129l-3.375-72.813l-10.105, 8.277l-0.342-0.225
			c-0.164-0.286-0.336-0.533-0.518-0.738c-1.745-1.972-2.66-2.689-5.493-1.918l0.022-0.222c-0.007, 0.074-0.015, 0.148-0.022, 0.222
			c-3.619, 36.327-13.142, 61.701-16, 69c-0.816, 2.084-2.644, 7.38-6, 14c-0.202, 0.399-0.36, 1.018-0.475, 1.821
			c-0.877-5.988-2.466-29.448-2.192-43.988c0.255-13.516, 1.266-25.963, 2.667-37.167l0, 0.728c-0.579, 0.219-1.19, 0.423-1.833, 0.605
			c-4.541, 1.29-8.411, 0.879-10.5, 0.5c8.213-6.11, 10.661-26.85, 11.435-37.041l-0.072-0.005c-0.118-3.732-1.137-5.323-3.654-10.912
			c-1.484-3.295-2.727-5.746-4.3-8.23l0.006-0.101c-0.549, 9.073-2.636, 18.541-3.915, 25.456c-0.464-2.247-1.654-6.44-5-10.5
			c-2.284-2.771-4.756-4.49-6.5-5.5c0.717-2.477, 2.473-9.79-1-17.5c-1.419-3.15-1.318-2.87-2.79-4.659l-0.21, 13.825
			c-0.24, 2.646-0.364, 5.285-2.5, 8.167c-0.735, 0.991-1.956, 2.153-5.667, 3.5c-2.704, 0.982-7.432, 1.869-13.103, 1.877
			c0.497-3.395, 0.233-5.59-0.23-10.544c-0.301-3.216-1.82-9.903-2.456-12.333l-0.209-0.013c-0.075, 1.203-0.172, 2.43-0.294, 3.68
			c-0.996, 10.258-3.762, 19.269-6.063, 25.792c0.367-7.025-0.896-19.938-1.188-21.667c-0.879-5.211-1.064-19.25-3.375-25.375
			c0.771, 2.942, 2.058, 9.517-0.25, 17.25c-1.662, 5.567-5.474, 10.641-7.343, 12.812c0.482, 5.765, 1.254, 11.605, 1.843, 15.104
			c-0.139-0.264-1.967-3.049-6.326-4.25c-2.328-0.641-6.44-0.575-7.341, 0c0, 0-5.958-27.375-6.083-27.625
			c-0.047, 4.258-0.435, 11.8-0.021, 16.771c0.471, 5.652, 1.253, 9.569, 2.146, 14.229c-5.236-2.884-14.589-9.183-18.5-19.042
			c-2.25-5.672-3.25-13.875-3.688-25.688c-0.104-2.808-0.215-6.892-0.28-11.587l-0.056, 0.001c-3.447, 3.394-4.713, 5.205-8.018, 12.024
			c-4.333, 8.938-5.646, 30.063-3.615, 42.5c-5.688, 0-6.875-2.063-8.156-4.188c-0.81-1.344-4.656-15.156-4.656-21.719l0.02-0.467
			c-0.693, 11.08-0.4, 21.542, 0.277, 30.405c-4.281-1.906-8.007-5.852-10.484-12.235c-1.508-3.886-3.113-10.528-3.625-15.861
			l0.007-0.282c-0.22, 8.499, 0.097, 18.391, 0.607, 28.721c0.836, 16.92, 7.158, 32.043, 11.375, 40.76c-2.315-0.35-5.741-1.149-9.257-2.704
			l0.236, 0.152c0, 10.083, 1.612, 20.899, 2.994, 30.021c1.696, 11.195, 2.791, 31.024, 8.577, 40.751l-0.852-1.73
			c-9.909-15.353-23.624-49.847-29.342-72.231l0.007-0.001l-3.042, 1.667l0.095, 0.024c-3.133-8.975-5.863-16.929-7.567-26.873"/>
		
		<path id="左-长发刘海" class="st11" d="M106.75, 332.719H93.49l0-0.219c0.374-11.597, 1.975-22.978, 3.51-28.833
			c2.347-8.949, 5.347-14.216, 8-26.333c1.363-6.225, 4.035-22.093, 4.362-25.37c0.181, 1.905, 0.306, 4.097, 0.388, 6.703
			c-0.958, 24.319-1.917, 48.639-2.875, 72.958"/>
		
		<path id="右-长发刘海" class="st11" d="M238.192, 244.154c-0.602, 4.227-0.003, 13.562, 1.621, 22.929
			c2.409, 13.895, 4.058, 22.012, 4.813, 26.167c1.616, 8.893, 3.133, 23.135, 2.375, 39.25l0, 0.219h13.832l0.001-0.219
			c1.793-13.667-4.83-28.438-6.583-35.678c-1.833-7.572-6.144-14.835-8.083-23.489c-2.745-12.251-4.481-30.4-4.333-37.25"/>
		
		<g id="高光">
			<path class="st12" d="M55.873, 87.358c14.669-4.358, 65.44-4.014, 65.46-3.524c0.025, 0.598-20.111, 3.27-48.833, 6.375
				c-12.333, 1.333-17.726, 3.65-22.93, 7.78L55.873, 87.358z"/>
			<path class="st12" d="M293.132, 95.841c-8.087-6.985-29.299-11.119-42.838-11.091c-21.209, 0.043-45.998, 1.259-45.961, 2.583
				c0.041, 1.489, 29.483, 1.325, 51, 5.667c18.583, 3.75, 37.667, 11.083, 44.252, 21.022L293.132, 95.841z"/>
			
				<ellipse transform="matrix(0.0232 -0.9997 0.9997 0.0232 87.7977 255.3627)" class="st12" cx="174.583" cy="82.75" rx="1.625" ry="27.417"/>
		</g>
		
		<g id="阴影">
			<path class="st13" d="M63.082, 125.563c-4.719, 15.18-5.362, 26.128-7.582, 45.603c-4, 35.083-2.948, 84.251, 1.128, 106.5
				c1.926-8.499, 3.505-12.911, 4.372-23.167c1.364-16.135, 0.136-19.354, 1.5-36.167c1.154-14.222, 1.062-15.871, 3.5-29.833
				c1.595-9.139-0.269-45.474-2.56-61.807"/>
			<path class="st13" d="M276.461, 154.339L290, 146.333c-1.819, 20.03-2.417, 51.25-0.667, 67.667c1.03, 9.661, 2.013, 17.533, 2.5, 30.834
				c0.611, 16.708, 0.25, 22.832, 0.018, 32.302c-2.443-13.086-4.886-26.172-7.329-39.258c-0.69-4.212-3.748-7.062-4.023-11.129
				l-3.375-72.813"/>
		</g>
		
		<g id="右头饰">
			<path class="st5" d="M268.667, 231.667c-0.157-14.893-0.454-29.159, 0.667-46c0.879-13.207, 1.642-28.279, 3.167-40.167"/>
			<path class="st14" d="M278, 231.833c-1.241-12.287-2.221-25.249-2.833-38.833c-0.616-13.67-0.845-32.497-0.709-44.917"/>
			<g>
				<g>
					<path class="st15" d="M265.508, 86.262c9.186, 19.178, 15.667, 39.474, 19.415, 60.403c0.383-0.941, 0.766-1.882, 1.149-2.823
						c-3.278, 1.889-6.556, 3.778-9.833, 5.667c1.224, 0.498, 2.448, 0.996, 3.673, 1.494c-1.389-3.667-2.778-7.333-4.167-11
						c-1.129-2.98-5.964-1.688-4.821, 1.329c1.389, 3.667, 2.778, 7.333, 4.167, 11c0.566, 1.494, 2.168, 2.361, 3.673, 1.494
						c3.278-1.889, 6.556-3.778, 9.833-5.667c1.03-0.593, 1.346-1.723, 1.149-2.823c-3.826-21.363-10.545-42.027-19.919-61.597
						C268.436, 80.837, 264.123, 83.371, 265.508, 86.262L265.508, 86.262z"/>
				</g>
			</g>
		</g>
		
		<g id="左头饰">
			<path class="st14" d="M66.596, 138.333c-0.209, 11.854, 0.116, 42.345, 1.071, 56c1.169, 16.728, 3.208, 32.122, 5.667, 46"/>
			<g>
				<g>
					<path class="st15" d="M64.175, 86.405c-15.384, 24.872-21.478, 54.307-17.585, 83.26c0.143, 1.067, 1.422, 1.835, 2.411, 1.835
						c5.964, 0, 11.927, 0, 17.891, 0c3.217, 0, 3.223-5, 0-5c-5.964, 0-11.927, 0-17.891, 0c0.804, 0.612, 1.607, 1.224, 2.411, 1.835
						c-3.709-27.588, 2.458-55.765, 17.081-79.407C70.189, 86.184, 65.866, 83.67, 64.175, 86.405L64.175, 86.405z"/>
				</g>
			</g>
		</g>
	
	</g><!-- 头发及发饰 END -->

</g><!-- 上色 END -->


<g id="描边" class="st16">
	<g id="衣服" class="st17">
		<path class="st18" 
        d="
            M108.125, 258.75
            c7.778, 11.427, 16.806, 23.596, 27.25, 36.125
            c11.313, 13.571, 24.104, 27.323, 34.705, 37.625"/>
		<path class="st18" 
        d="
            M90, 281.75
            c9.533, 8.876, 20.019, 18.029, 31.5, 27.25
            c10.149, 8.151, 21.57, 17.298, 31.125, 24"/>
		<path class="st18" 
        d="
            M243, 266
            c-9.978, 10.035-26.346, 25.897-37.625, 36.25
            c-11.067, 10.158-24.64, 21.316-35.295, 30.25"/>
		<path class="st18" 
        d="
            M266.614, 278.249
            c-9.223, 8.641-21.31, 18.497-33.364, 27.626
            c-11.369, 8.61-29.921, 20.345-40.188, 26.625"/>
        <line class="st18" x1="142.312" y1="325.418" x2="142.312" y2="332.5"/>
		<line class="st18" x1="204.419" y1="325.418" x2="204.419" y2="332.5"/>
		<path class="st18" 
        d="
            M90, 281.75
            c-3.321, 5.535-7.077, 12.887-9.875, 22.625
            c-3.068, 10.681-3.265, 21.817-3.25, 28.625"/>
		<line class="st18" x1="84.125" y1="303.875" x2="85.5" y2="332.5"/>
		<path class="st18" 
        d="
            M85.5, 290.123
            c1.257, 3.178, 4.1, 13.477, 5, 17.252
            c3.082, 12.926, 1.99, 17, 2.99, 25.125"/>
		<path class="st18" 
        d="
            M266.614, 278.249
            c2.235, 0.924, 4.757, 2.282, 7.886, 5.501
            c2.509, 2.58, 4.57, 5.825, 6.375, 11.125
			c4.543, 13.339, 4.466, 33.095, 4.394, 37.625"/>
		<path class="st18" 
        d="
            M259.813, 314.313
            c2.276-3.214, 5.018-9.459, 7.021-16.313
            c1.971-6.743, 2.216-14.764, 2.047-18.669"/>
		<line class="st18" x1="266.614" y1="332.5" x2="265.466" y2="302.263"/>
		<polyline class="st18" 
        points="265.466, 315.833 274.333, 322 271.833, 332.5 		"/>
		<path class="st18" 
        d="
            M232.351, 262.405
            c0.847-0.519, 10.232-5.804, 19.983-1.739
            c9.943, 4.145, 14.082, 16.674, 14.28, 17.583"/>
		<path class="st18" 
        d="
            M205.75, 244.834
            c12.667, 1, 16.99, 5.728, 19.417, 8.07
            c2.896, 2.794, 2.767, 5.126, 6, 8.429
			c3.837, 3.919, 8.441, 3.969, 11.833, 4.667"/>
		<line class="st18" x1="152.626" y1="246.311" x2="133.833" y2="246.833"/>
		<line class="st18" x1="205.75" y1="244.834" x2="192.375" y2="245.206"/>
		<path class="st18" 
        d="
            M133.833, 246.833
            c-3.362, 3.97-5.543, 6.54-6.5, 7.667
            c-3.876, 4.566-5.855, 6.848-7.833, 6.833
			c-2.658-0.02-3.151-2.841-6.167-3.667
            c-4.313-1.181-8.955, 3.046-11.833, 5.667
            c-2.989, 2.721-8.271, 8.417-11.5, 18.417"/>
	</g><!-- 衣服 END -->
	
	<g id="头" class="st17">
		<path id="下巴" class="st18" d="M98.222, 206.938c4.524, 6.273, 22.06, 28.758, 52.778, 35.395
			c47.185, 10.194, 82.891-26.534, 84.969-28.729"/>
		<path class="st19" d="M71, 72.25C88.489, 35.621, 124.958, 11.838, 165, 11c42.651-0.893, 82.142, 24.399, 99.75, 64"/>
		<path class="st19" d="M73.642, 67.078C64.75, 72.25, 47.747, 96.868, 42.75, 114c-7.61, 26.092-10.722, 35.183-11.25, 63.5
			c-0.591, 31.72, 5.822, 57.883, 9.083, 78c2.883, 17.782, 5.694, 43.58, 4.417, 76.125"/>
		<path class="st19" d="M264.75, 75c2.723-0.203, 7.376-0.149, 12.25, 2.167c2.463, 1.17, 5.977, 3.39, 10.833, 10.167
			c2.108, 2.941, 6.731, 9.506, 9.667, 19.167c12.344, 40.624, 11.512, 100.833, 11.512, 100.833c-0.369, 43.339-1.42, 51.917-3.179, 91.917
			c-0.879, 19.981-0.172, 22.609, 0.5, 33.25"/>
		<path class="st19" d="M302, 331.5c-5.826-31.207-11.651-62.414-17.477-93.621c-0.69-4.212-3.748-7.062-4.023-11.129l-3.375-72.813"
			/>
		<path class="st19" d="M52, 332c-0.91-21.149, 1.273-37.665, 3.5-49c2.431-12.371, 4.469-16.303, 5.5-28.5
			c1.364-16.135, 0.136-19.354, 1.5-36.167c1.154-14.222, 1.062-15.871, 3.5-29.833c1.595-9.139-0.269-45.474-2.56-61.807"/>
		<path class="st19" d="M393.5, 206"/>
		<path class="st19" d="M70.875, 73.958"/>
		<path class="st19" d="M70, 91c-1.7, 15.559-0.48, 41.896, 3.5, 64.813c3.625, 20.875, 19.944, 63.496, 31.281, 81.063
			c3.344, 6.667, 4.594, 9.958, 4.969, 21.792c-0.958, 24.319-1.917, 48.639-2.875, 72.958"/>
		<path class="st19" d="M84.5, 161.125c0.898, 0.958, 1.933, 1.933, 3.125, 2.875c5.205, 4.115, 11.755, 5.825, 15.458, 6.385"/>
		<path class="st19" d="M93, 83c-2.517, 10.089-2.23, 27.615-1.292, 46.625c0.836, 16.92, 7.158, 32.043, 11.375, 40.76"/>
		<path class="st19" d="M94.063, 167.833c0, 10.083, 1.612, 20.899, 2.994, 30.021c1.696, 11.195, 2.791, 31.024, 8.577, 40.751"/>
		<path class="st19" d="M71, 72.25c-2.101, 7.425-8.019, 35.426-7.917, 45c0.24, 22.432, 4.287, 34.389, 9.417, 49.083"/>
		<line class="st19" x1="72.405" y1="166.31" x2="75.446" y2="164.643"/>
		<path class="st19" d="M109.362, 251.964c-0.327, 3.277-2.999, 19.144-4.362, 25.369c-2.653, 12.117-5.653, 17.385-8, 26.333
			c-1.535, 5.855-3.137, 17.236-3.51, 28.833"/>
		<path class="st19" d="M246.833, 51.333c4.626, 10.889, 9.255, 24.433, 12.333, 40.333c5.463, 28.212, 3.245, 50.146, 1.5, 67.667
			c-3.619, 36.327-13.142, 61.701-16, 69c-0.816, 2.084-2.644, 7.38-6, 14c-1.268, 2.501-0.786, 13.604, 1.146, 24.75
			c2.409, 13.895, 4.058, 22.012, 4.813, 26.167c1.616, 8.893, 3.133, 23.135, 2.375, 39.25"/>
		<path class="st19" d="M264.75, 75c1.917, 5.229, 1.497, 17.94, 3, 28.75c1.299, 9.346, 2.662, 13.87, 3.5, 19
			c1.478, 9.049, 1.984, 21.605-4.23, 39.465"/>
		<line class="st19" x1="267.02" y1="162.215" x2="277.125" y2="153.938"/>
		<path class="st19" d="M241.833, 236.083c-0.147, 6.85, 1.588, 24.999, 4.333, 37.25c1.939, 8.654, 6.25, 15.917, 8.083, 23.489
			c1.753, 7.241, 8.376, 22.011, 6.583, 35.678"/>
		<path class="st19" d="M238.667, 163c-1.401, 11.203-2.412, 23.651-2.667, 37.167c-0.274, 14.539, 1.315, 38, 2.193, 43.988"/>
		<path class="st19" d="M244.5, 160.5c-1.556, 1.181-4.132, 2.829-7.667, 3.833c-4.541, 1.29-8.411, 0.879-10.5, 0.5"/>
		<path class="st18" d="M226.333, 164.833c9.083-6.757, 11.115-31.411, 11.629-39.896c0.704-11.625, 0.933-40.5-1.629-54.938"/>
		<path class="st18" d="M91.094, 101.186c0.512, 5.333, 2.116, 11.975, 3.625, 15.861c2.478, 6.382, 6.203, 10.328, 10.484, 12.235"/>
		<path class="st18" d="M104.906, 99.344c0, 6.563, 3.846, 20.375, 4.656, 21.719c1.281, 2.125, 2.469, 4.188, 8.156, 4.188"/>
		<path class="st18" d="M107.625, 75.875c-1.146, 6.653-2.085, 13.97-2.625, 21.875c-0.786, 11.497-0.496, 22.369, 0.203, 31.531"/>
		<path class="st18" d="M130, 40.5c-0.999, 13.478-0.625, 33.385-0.313, 41.813c0.438, 11.813, 1.438, 20.016, 3.688, 25.688
			c3.911, 9.859, 13.264, 16.157, 18.5, 19.042"/>
		<path class="st18" d="M149.75, 96.042c-0.047, 4.258-0.435, 11.8-0.021, 16.771c0.471, 5.652, 1.253, 9.569, 2.146, 14.229"/>
		<path class="st18" d="M149.54, 96.5"/>
		<path class="st18" d="M149.75, 96.042c0.125, 0.25, 6.083, 27.625, 6.083, 27.625"/>
		<path class="st18" d="M155.833, 123.667c0.9-0.575, 5.012-0.641, 7.341, 0c4.359, 1.201, 6.187, 3.986, 6.326, 4.25"/>
		<path class="st18" d="M169.5, 127.917c-0.967-5.751-2.432-17.829-2.285-25.5c0.26-13.585, 3.017-24.868, 5.75-33"/>
		<path class="st18" d="M167.657, 112.813c1.869-2.171, 5.681-7.246, 7.343-12.813c2.308-7.733, 1.021-14.308, 0.25-17.25"/>
		<path class="st18" d="M185.875, 83.25c0.561, 5.783, 0.771, 12.816, 0, 20.75c-0.996, 10.258-3.762, 19.269-6.063, 25.792"/>
		<path class="st18" d="M175.25, 82.75c2.311, 6.125, 2.496, 20.164, 3.375, 25.375c0.292, 1.729, 1.554, 14.642, 1.188, 21.667"/>
		<path class="st18" d="M205.5, 58.167c1.303, 1.853, 2.907, 4.589, 4, 8.167c0.654, 2.139, 0.99, 4.139, 1.167, 6.167
			c0.484, 5.56, 0.45, 19.138-0.333, 37.167"/>
		<path class="st18" d="M186.377, 100.333c0.636, 2.43, 2.155, 9.118, 2.456, 12.333c0.463, 4.953, 0.727, 7.148, 0.23, 10.544"/>
		<path class="st18" d="M189.063, 123.21c5.671-0.008, 10.399-0.895, 13.103-1.877c3.711-1.347, 4.932-2.509, 5.667-3.5
			c2.136-2.882, 2.26-5.521, 2.5-8.167"/>
		<path class="st18" d="M214.333, 118c1.744, 1.01, 4.216, 2.729, 6.5, 5.5c3.346, 4.06, 4.536, 8.253, 5, 10.5"/>
		<path class="st18" d="M229.742, 108.645c1.573, 2.484, 2.815, 4.934, 4.3, 8.23c2.685, 5.962, 3.666, 7.375, 3.666, 11.689"/>
		<path class="st18" d="M228.833, 80c0.875, 7.72, 1.387, 16.758, 1, 26.833c-0.368, 9.58-2.64, 19.816-4, 27.167"/>
		<path class="st18" d="M210.544, 95.841c1.471, 1.789, 1.37, 1.508, 2.79, 4.659c3.473, 7.71, 1.717, 15.023, 1, 17.5"/>
		<path class="st18" d="M75.446, 164.643c-2.946, 1.69-3.018, 1.596-3.808, 4.607c-1.333, 5.083, 2.139, 14.5, 4.034, 17.367
			c3.53, 5.342, 6.208, 8.499, 11.049, 12.19"/>
		<path class="st18" d="M260.667, 159.333c2.833-0.771, 3.748-0.054, 5.493, 1.918c2.903, 3.28, 3.559, 17.468, 0.674, 24.749
			c-4.155, 10.486-9.839, 13.81-13.336, 15.488"/>
		<path class="st18" d="M117.719, 125.25c-2.031-12.438-0.719-33.563, 3.615-42.5c3.306-6.818, 4.572-8.629, 8.018-12.024"/>
	</g><!-- 头 END -->
	
	<g id="脖子" class="st17">
		<path class="st18" d="M143.667, 258.333C146.791, 269.275, 150.523, 280.88, 155, 293c5.07, 13.728, 10.922, 28.017, 16.313, 39.5"/>
		<path class="st18" d="M207.375, 266c-5.671, 7.235-13.6, 18.272-19.375, 28.5c-7.495, 13.274-13.136, 27.408-16.688, 38"/>
		<polyline class="st18" points="145.067, 263.142 152.625, 256.5 152.625, 242.666 		"/>
		<polyline class="st18" points="204.071, 270.179 192.375, 256.625 192.375, 240.444 		"/>
	</g><!-- 脖子 END -->

</g><!-- 描边 END -->

</svg>
