<?xml version="1.0" encoding="utf-8"?>
<!-- Generator: Adobe Illustrator 21.0.0, SVG Export Plug-In . SVG Version: 6.00 Build 0)  -->

<svg version="1.1" xmlns="http://www.w3.org/2000/svg" xmlns:xlink="http://www.w3.org/1999/xlink" x="0px" y="0px"
	 viewBox="0 0 600 600" style="enable-background:new 0 0 600 600;" xml:space="preserve">

<style type="text/css">
	.st0{fill:#FFFC9D;stroke:#816124;stroke-width:6;stroke-miterlimit:10;}
	.st1{fill:#29ABE2;}
	.st2{fill:#FB8D8C;}
	.st3{fill:none;stroke:#816124;stroke-width:6;stroke-miterlimit:10;}
	.st4{fill:#816124;}
</style>

<g id="图层_4">
	<path id="pikachu_身体" class="st0" d="M420.5,130.5c-13.63-8.28-44.43-24.36-86-24c-62.42,0.55-103.38,37.77-113,47l14-12
		c-22.82-0.79-55.13,0.23-87,6c-41.23,7.46-61.68,13.38-86,25c12.79,7.24,32.49,16.39,58,21c32.35,5.84,68.21-1.3,84-5
		c-4,14-10.35,37.83-12,56c-2,22,0,98-3,111C184.56,376.91,152,435,152,435l-40-44l-62,41L0.5,364.5v67l49,30l52-32l46,21
		c0,11.33-1.73,26.42,0,35c1.21,6.01,6.6,16.15,11,23c5.7,8.87,14.18,20.19,21,23c49.35,20.33,213.5,0,213.5,0s15.21-5.9,27.5-7
		c19.75-1.77,40.05,3.57,47,7c8.95-10.68,19.99-28.61,29-46c13.96-26.95,19.11-55.92,22-74c-7.8,4.46-19.51,12.71-30,24
		c-10.64,11.45-17.13,22.82-21,31l3-6l-9-141l-8,11c28-38,30-54.82,30-71c0-22-18-45-20-65c-0.27-2.75,1.15-9.52-1-18
		c-2.06-8.12-6.01-14.18-9-18l7,12c17.66-7.05,36.74-16.44,58-29c23.68-14,42.28-26.66,58-40c-26-3-73,2-93,4
		c-24.96,2.5-52.7,10.73-74,19L420.5,130.5z"/>
</g>


<g id="辅助线">
	<path class="st1" id="右眼" d="M252.7,228.84c8.67-3.33,17.33-6.67,26-10c5.35-2.06,3.03-10.76-2.39-8.68c-8.67,3.33-17.33,6.67-26,10
		C244.95,222.22,247.28,230.92,252.7,228.84L252.7,228.84z"/>
	<path class="st1" id="左眼" d="M415.5,207c7.67,0,15.33,0,23,0c5.79,0,5.8-9,0-9c-7.67,0-15.33,0-23,0C409.71,198,409.7,207,415.5,207
		L415.5,207z"/>

	<path class="st1" id="嘴" d="M374.61,224.7c-0.74,2.26-1.2,4.58-1.89,6.84c-0.86,2.82-1.83,3.05-4.75,2.17
		c-3.73-1.12-7.3-2.08-11.04-0.47c-2.93,1.26-4.78,3.75-7.14,5.77c-5.04,4.31-9,1-13.77-2.11c-3.24-2.12-6.25,3.08-3.03,5.18
		c4.33,2.82,9.22,6.59,14.66,4.97c4.92-1.46,7-6.24,11.35-8.18c5.11-2.27,10.61,3.88,15.71,0.64c4.04-2.56,4.36-9.16,5.68-13.23
		C381.59,222.62,375.8,221.04,374.61,224.7L374.61,224.7z"/>

	<ellipse id="腮红_右" class="st2" cx="255.5" cy="282.5" rx="22.5" ry="23.5"/>
	<ellipse id="腮红_左" class="st2" cx="452.5" cy="260" rx="16.5" ry="21"/>
	
	<path id="左手" class="st0" d="M322.5,490.5c22.35,37.35,37.01,54.68,44,52c5.6-2.15,6.27-17.15,2-45"/>
	<path id="右手" class="st0" d="M399.5,501.5c3.82,20.42,8.15,30.75,13,31c6.94,0.35,14.94-19.98,24-61"/>
	
	<path id="左脚" class="st3" d="M268.5,467.5c30.54-46.73,39.88-53.55,43-52c6.16,3.07-6.58,41.63-14,61
		c-10.07,26.28-21.57,46.6-30,60"/>

	<path id="背部花纹2" class="st4" d="M180.5,381.5c-1.31,6.54-6,24-2,37c4.92,16,16.12,27.1,13,31c-4,5-16-10-32-27"/>
	<path id="背部花纹1" class="st4" d="M180.5,381.5c17,23,26,31,29,28c3.54-3.54-14.83-14.75-16-30c-1-13-1.13-35.12-1-43"/>
	
	<path id="左耳_花纹" class="st4" d="M63.5,172.5c12.79,7.24,32.49,16.39,58,21c32.35,5.84,26,2,26,2c-6-3-14.76-13.06-17-22
		c-2-8,4-20,8-24C138.5,149.5,87.82,160.88,63.5,172.5z"/>
	<path id="右耳花纹" class="st4" d="M577.5,101.5c-26-3-82,3-82,3c8,0,22.76,5.58,27,13c4,7,1,20-8,27
		C538.18,130.5,561.78,114.84,577.5,101.5"/>
	
	<path id="尾巴花纹" class="st4" d="M120.62,437.37c0,0-2.12-39.93-2.12-41.13l36.5,39.07l-4.76,15.94L120.62,437.37z"/>
</g>


</svg>
